<svg width="487" height="112" viewBox="0 0 487 112" fill="none" xmlns="http://www.w3.org/2000/svg">
<path d="M6.41053 112H30.9119C34.3092 112 37.5625 110.651 39.9625 108.251L108.293 39.92V112H142.96V28.2827C142.96 12.6614 130.298 3.05176e-05 114.677 3.05176e-05C107.173 3.05176e-05 99.9838 2.98136 94.6772 8.28269L1.88786 101.072C-2.14414 105.104 0.709198 112 6.41586 112H6.41053Z" fill="white"/>
<path d="M300.293 3.05176e-05V72.08L228.213 3.05176e-05H179.226C163.616 3.05176e-05 150.96 12.656 150.96 28.2667V80C150.96 97.6747 165.285 112 182.96 112H246.96V80H185.626V2.6667L291.21 108.251C293.61 110.651 296.869 112 300.261 112H308.293C323.018 112 334.96 100.059 334.96 85.3333V3.05176e-05H300.293Z" fill="white"/>
<path d="M371.242 3.05176e-05C355.621 3.05176e-05 342.96 12.6614 342.96 28.2827V112H377.626V39.92L445.957 108.251C448.357 110.651 451.616 112 455.008 112H479.509C485.21 112 488.064 105.104 484.037 101.072L391.248 8.28269C385.941 2.97603 378.746 3.05176e-05 371.248 3.05176e-05H371.242Z" fill="white"/>
</svg>
