<svg width="795" height="180" viewBox="0 0 795 180" fill="none" xmlns="http://www.w3.org/2000/svg">
<path d="M10.3026 180H49.6798C55.1398 180 60.3683 177.831 64.2255 173.974L174.043 64.1571V180H229.757V45.4543C229.757 20.3486 209.408 0 184.303 0C172.243 0 160.688 4.79143 152.16 13.3114L3.03407 162.437C-3.44594 168.917 1.13978 180 10.3112 180H10.3026Z" fill="white"/>
<path d="M298.33 128.571H396.902V180H294.045C265.639 180 242.616 156.977 242.616 128.571V45.4286C242.616 20.34 262.956 0 288.045 0H298.33V128.571Z" fill="white"/>
<path d="M481.946 173.974C485.803 177.831 491.04 180 496.491 180H509.4C533.066 180 552.257 160.809 552.257 137.143V0H496.543V115.843L380.709 0H307.98L481.954 173.974H481.946Z" fill="white"/>
<path d="M610.577 0C585.471 0 565.123 20.3486 565.123 45.4543V180H620.837V64.1571L730.654 173.974C734.511 177.831 739.749 180 745.2 180H784.577C793.74 180 798.326 168.917 791.854 162.437L642.72 13.3114C634.191 4.79143 622.629 0 610.577 0Z" fill="white"/>
</svg>
